HIERARCHY
ROOT hip
{
	OFFSET 0.000000 0.000000 0.000000
	CHANNELS 6 Xposition Yposition Zposition Xrotation Zrotation Yrotation 
	JOINT abdomen
	{
		OFFSET 0.000000 3.422050 0.000000
		CHANNELS 3 Xrotation Zrotation Yrotation 
		JOINT chest
		{
			OFFSET 0.000000 8.486693 -0.684411
			CHANNELS 3 Xrotation Zrotation Yrotation 
			JOINT neck
			{
				OFFSET 0.000000 10.266162 -0.273764
				CHANNELS 3 Xrotation Zrotation Yrotation 
				JOINT head
				{
					OFFSET 0.000000 3.148285 0.000000
					CHANNELS 3 Xrotation Zrotation Yrotation 
					End Site
					{
						OFFSET 0.000000 3.148289 0.000000
					}
				}
			}
			JOINT lCollar
			{
				OFFSET 3.422053 6.707223 -0.821293
				CHANNELS 3 Yrotation Zrotation Xrotation 
				JOINT lShldr
				{
					OFFSET 3.285171 0.000000 0.000000
					CHANNELS 3 Zrotation Yrotation Xrotation 
					JOINT lForeArm
					{
						OFFSET 10.129278 0.000000 0.000000
						CHANNELS 3 Yrotation Zrotation Xrotation 
						JOINT lHand
						{
							OFFSET 8.486692 0.000000 0.000000
							CHANNELS 3 Zrotation Yrotation Xrotation 
							End Site
							{
								OFFSET 4.106464 0.000000 0.000000
							}
						}
					}
				}
			}
			JOINT rCollar
			{
				OFFSET -3.558935 6.707223 -0.821293
				CHANNELS 3 Yrotation Zrotation Xrotation 
				JOINT rShldr
				{
					OFFSET -3.148289 0.000000 0.000000
					CHANNELS 3 Zrotation Yrotation Xrotation 
					JOINT rForeArm
					{
						OFFSET -10.266159 0.000000 0.000000
						CHANNELS 3 Yrotation Zrotation Xrotation 
						JOINT rHand
						{
							OFFSET -8.349810 0.000000 0.000000
							CHANNELS 3 Zrotation Yrotation Xrotation 
							End Site
							{
								OFFSET -4.106464 0.000000 0.000000
							}
						}
					}
				}
			}
		}
	}
	JOINT lThigh
	{
		OFFSET 5.338403 -1.642589 1.368821
		CHANNELS 3 Xrotation Zrotation Yrotation 
		JOINT lShin
		{
			OFFSET -2.053232 -20.121670 0.000000
			CHANNELS 3 Xrotation Zrotation Yrotation 
			JOINT lFoot
			{
				OFFSET 0.000000 -19.300380 -1.231939
				CHANNELS 3 Xrotation Yrotation Zrotation 
				End Site
				{
					OFFSET 0.000000 -2.463878 4.653993
				}
			}
		}
	}
	JOINT rThigh
	{
		OFFSET -5.338403 -1.642589 1.368821
		CHANNELS 3 Xrotation Zrotation Yrotation 
		JOINT rShin
		{
			OFFSET 2.053232 -20.121670 0.000000
			CHANNELS 3 Xrotation Zrotation Yrotation 
			JOINT rFoot
			{
				OFFSET 0.000000 -19.300380 -1.231939
				CHANNELS 3 Xrotation Yrotation Zrotation 
				End Site
				{
					OFFSET 0.000000 -2.463878 4.653993
				}
			}
		}
	}
}
MOTION
Frames: 15
Frame Time: 0.033325
-7.024108 42.277031 -28.274738 9.823652 0.625371 -57.272728 10.391211 -0.186314 9.910498 1.012956 2.198276 7.210567 9.425611 -2.771798 6.048999 0.000000 0.000000 8.561342 4.366171 -24.005766 0.372769 -25.996893 7.761985 -6.298281 -49.269577 -23.770922 5.458273 -6.996822 0.002618 -0.000160 18.536356 16.147404 -11.301985 -10.751668 10.448054 -47.410610 16.982052 0.527993 -9.463349 -17.279470 -11.695591 -0.164410 0.566251 23.759483 5.080415 13.031427 -10.854612 -0.677373 1.535483 37.378159 -18.998842 -8.449781 -0.944762 -13.355236 12.142302 -1.441815 -0.550643 0.290840 0.797317 -8.905254 
-6.666389 42.105000 -28.077583 11.470181 0.583208 -55.807529 13.034487 -0.086844 11.981828 3.401311 1.813200 9.888740 8.947690 -2.422868 4.602024 0.000000 0.000000 8.428596 4.393503 -23.863947 0.377748 -25.679228 8.082437 -6.255141 -47.800987 -26.977589 5.132016 -6.996763 0.002662 -0.000163 19.597500 15.645766 -11.673770 -7.031300 15.693207 -47.175846 14.721489 1.158995 -7.279307 -15.545388 -10.798491 1.836169 -2.182644 25.535015 5.378151 15.665594 -11.708042 -1.086455 -3.001650 35.332470 -16.096462 -10.519094 0.434385 -13.484062 14.388206 -2.543781 -0.655015 0.217353 -0.703741 -8.558859 
-6.308669 41.932964 -27.880428 13.113270 0.499098 -54.345741 15.681910 -0.083085 14.057328 5.777676 1.315262 12.558224 8.460655 -2.085737 3.150862 0.000000 0.000000 8.295851 4.420791 -23.722147 0.382647 -25.361071 8.402637 -6.210171 -46.310963 -30.184467 4.891170 -6.996704 0.002707 -0.000165 20.652464 15.137711 -12.034894 -3.451283 20.913548 -47.803715 12.615161 2.194473 -5.255082 -13.787833 -9.962755 3.855019 -4.959053 27.318419 5.584068 18.311281 -12.541147 -1.536047 -7.301853 33.109859 -13.465094 -12.590512 1.806682 -13.662491 16.636309 -3.639766 -0.802523 0.152922 -2.204672 -8.214281 
-5.950951 41.760933 -27.683273 14.750665 0.373412 -52.889668 18.325460 -0.175058 16.129009 8.132403 0.706409 15.209426 7.964946 -1.760805 1.696052 0.000000 0.000000 8.163101 4.448035 -23.580362 0.387467 -25.042412 8.722564 -6.163369 -44.790531 -33.383202 4.742126 -6.996645 0.002751 -0.000168 21.701193 14.623555 -12.385303 0.222366 26.177935 -48.093494 10.467175 3.156192 -3.188006 -12.010705 -9.190824 5.888402 -7.765096 29.102463 5.694146 20.966339 -13.351206 -2.025018 -11.367648 30.737700 -11.102563 -14.664433 3.169056 -13.890189 18.886082 -4.727059 -0.992856 0.097486 -3.704876 -7.871179 
-5.593231 41.588898 -27.486118 16.380159 0.206696 -51.441490 20.957186 -0.361798 18.188946 10.456293 -0.010151 17.833199 7.461027 -1.448450 0.238150 0.000000 0.000000 8.030352 4.475234 -23.438587 0.392208 -24.723244 9.042201 -6.114730 -43.229176 -36.565453 4.692813 -6.996585 0.002795 -0.000171 22.743620 14.103614 -12.724940 4.043032 31.431585 -48.003811 8.282075 4.039792 -1.082648 -10.218094 -8.484666 7.932362 -10.603142 30.879831 5.704539 23.628485 -14.135645 -2.551981 -15.869518 28.704542 -8.231434 -16.741184 4.518487 -14.166698 21.136969 -5.802994 -1.225550 0.051003 -5.203755 -7.529203 
-5.235512 41.416866 -27.288963 17.999607 -0.000331 -50.003345 23.597246 -0.309123 20.255312 12.740799 -0.830045 20.421057 6.949382 -1.149023 -1.222266 0.000000 0.000000 7.897598 4.502386 -23.296818 0.396869 -24.403543 9.361523 -6.064248 -41.614613 -39.722965 4.753097 -6.996526 0.002840 -0.000174 23.779699 13.578207 -13.053773 7.626720 36.669857 -48.480843 6.064988 4.841456 1.055838 -8.414271 -7.845778 9.982761 -13.475754 32.643253 5.611629 26.295284 -14.892048 -3.115301 -20.172169 26.482683 -5.598406 -18.821049 5.852017 -14.491454 23.388371 -6.864977 -1.499987 0.013449 -6.700723 -7.188012 
-5.227252 41.247154 -27.231142 17.999607 -0.000331 -50.003345 26.237484 -0.351695 22.321905 14.978159 -1.747853 22.965286 6.430519 -0.862849 -2.684605 0.000000 0.000000 7.764843 4.529497 -23.155069 0.401453 -24.083317 9.680516 -6.011922 -39.932186 -42.847588 4.935270 -6.996466 0.002884 -0.000176 24.809393 13.047650 -13.371773 11.431060 41.922695 -48.554577 3.821577 5.557998 3.221768 -6.603628 -7.275151 12.035352 -16.385609 34.385468 5.412035 28.964176 -15.618193 -3.713105 -24.271690 24.099495 -3.208053 -20.904219 7.166767 -14.863770 25.639624 -7.910494 -1.815399 -0.015184 -8.195188 -6.847259 
-5.218991 41.077446 -27.173321 17.999607 -0.000331 -50.003345 26.237822 -0.370010 23.416264 15.153620 -1.522578 23.006176 5.904960 -0.590222 -4.148261 0.000000 0.000000 7.632088 3.680615 -23.171465 0.070738 -24.949827 8.124330 -6.147376 -39.932186 -42.847588 4.935270 -6.996407 0.002929 -0.000179 26.103956 13.912855 -13.703471 12.287095 41.117302 -47.897762 4.759537 6.140966 3.157984 -5.017967 -6.172181 13.907462 -16.961176 34.747608 5.284897 30.398279 -16.082331 -4.101865 -25.157616 23.786818 -2.936516 -20.904219 7.166767 -14.863770 25.639624 -7.910494 -1.815399 -0.167713 -8.128196 -6.871898 
-5.210731 40.907734 -27.115499 17.999607 -0.000331 -50.003345 26.237812 -0.388338 24.511232 15.329233 -1.297422 23.047754 5.373242 -0.331408 -5.612616 0.000000 0.000000 7.499332 2.831319 -23.183367 -0.260332 -25.810854 6.564052 -6.258800 -39.932186 -42.847588 4.935270 -6.996348 0.002973 -0.000182 27.410067 14.771435 -14.056964 13.121038 40.304352 -47.264420 5.699747 6.723140 3.084482 -3.393939 -5.117868 15.813020 -17.540361 35.108719 5.152731 31.840410 -16.537382 -4.503930 -26.040104 23.470245 -2.670842 -20.904219 7.166767 -14.863770 25.639624 -7.910494 -1.815399 -0.320203 -8.061135 -6.896355 
-5.202471 40.738022 -27.057678 17.999607 -0.000331 -50.003345 26.237442 -0.406669 25.606592 15.505001 -1.072388 23.090021 4.835919 -0.086642 -7.077044 0.000000 0.000000 7.366576 1.981744 -23.190760 -0.591643 -26.667278 5.000782 -6.346443 -39.932186 -42.847588 4.935270 -6.996288 0.003017 -0.000184 28.727882 15.622548 -14.432388 13.933679 39.484333 -46.653797 6.642234 7.304251 3.001236 -1.733923 -4.115881 17.749767 -18.123228 35.468765 5.015484 33.290199 -16.982840 -4.919068 -26.919069 23.149883 -2.411077 -20.904219 7.166767 -14.863770 25.639622 -7.910494 -1.815399 -0.472655 -7.994003 -6.920631 
-5.194211 40.568310 -26.999857 17.999607 -0.000331 -50.003345 26.236727 -0.424992 26.702160 15.680921 -0.847482 23.132971 4.293558 0.143876 -8.540908 0.000000 0.000000 7.233819 1.132025 -23.193628 -0.923080 -27.519993 3.435630 -6.410520 -39.932186 -42.847588 4.935270 -6.996229 0.003062 -0.000187 30.057583 16.465368 -14.829872 14.725779 38.657677 -46.065086 7.587019 7.884027 2.908221 -0.040651 -3.169651 19.715086 -18.709826 35.827686 4.873097 34.747253 -17.418211 -5.347011 -27.794462 22.825878 -2.157266 -20.904219 7.166767 -14.863770 25.639624 -7.910494 -1.815399 -0.625067 -7.926798 -6.944723 
-5.185951 40.398598 -26.942036 17.999607 -0.000331 -50.003345 26.235662 -0.443300 27.797729 15.857005 -0.622708 23.176619 3.746733 0.359973 -10.003563 0.000000 0.000000 7.101062 0.282297 -23.191978 -1.254529 -28.369875 1.869701 -6.451207 -39.932186 -42.847588 4.935270 -6.996169 0.003106 -0.000190 31.399288 17.299059 -15.249502 15.498097 37.824867 -45.497593 8.534127 8.462204 2.805418 1.682804 -2.282318 21.706030 -19.300190 36.185375 4.725518 36.211166 -17.843019 -5.787469 -28.666216 22.498341 -1.909443 -20.904219 7.166767 -14.863770 25.639622 -7.910494 -1.815399 -0.777441 -7.859528 -6.968635 
-5.177691 40.228889 -26.884214 17.999607 -0.000331 -50.003345 26.234253 -0.461580 28.893108 16.033247 -0.398073 23.220943 3.196028 0.561515 -11.464361 0.000000 0.000000 6.968306 -0.567302 -23.185818 -1.585874 -29.217812 0.304099 -6.468642 -39.932186 -42.847588 4.935270 -6.996109 0.003150 -0.000193 32.753117 18.122780 -15.691337 16.251369 36.986347 -44.950600 9.483581 9.038511 2.692815 3.433046 -1.456686 23.719303 -19.894382 36.541805 4.572690 37.681492 -18.256809 -6.240113 -29.534277 22.167414 -1.667641 -20.904219 7.166767 -14.863770 25.639624 -7.910494 -1.815399 -0.929775 -7.792185 -6.992362 
-5.169430 40.059177 -26.826393 17.999607 -0.000331 -50.003345 26.232485 -0.479822 29.988079 16.209661 -0.173581 23.265966 2.642030 0.748397 -12.922657 0.000000 0.000000 6.835553 -1.416637 -23.175142 -1.917001 -30.064632 -1.260079 -6.462923 -39.932186 -42.847588 4.935270 -6.996050 0.003195 -0.000195 34.119125 18.935696 -16.155399 16.986301 36.142525 -44.423382 10.435390 9.612678 2.570402 5.206378 -0.695176 25.751324 -20.492451 36.896889 4.414559 39.157764 -18.659140 -6.704587 -30.398581 21.833212 -1.431890 -20.904219 7.166767 -14.863770 25.639624 -7.910494 -1.815399 -1.082070 -7.724777 -7.015909 
-5.045458 40.126625 -26.974941 17.184465 0.013253 -50.093151 26.230375 -0.498018 31.082460 16.386240 0.050762 23.311674 2.085333 0.920550 -14.377807 0.000000 0.000000 6.702799 -2.265571 -23.159956 -2.247795 -30.911209 -2.821740 -6.434116 -39.932186 -42.847588 4.935270 -6.995991 0.003239 -0.000198 35.497383 19.736988 -16.641687 17.703569 35.293808 -43.915276 11.389578 10.184439 2.438179 6.998841 0.000201 27.798229 -21.094437 37.250561 4.251069 40.639488 -19.049578 -7.180502 -31.259106 21.495884 -1.202209 -20.904219 7.166767 -14.863770 25.639624 -7.910494 -1.815399 -1.234325 -7.657300 -7.039272 
